<svg width="20" height="20" viewBox="0 0 20 20" fill="none" xmlns="http://www.w3.org/2000/svg">
<path
    d="M0.45614 10.0972C0.462333 9.489 0.960381 8.99093 1.56857 8.98474L8.91 8.91001L8.98472 1.56858C8.99091 0.960398 9.48895 0.462354 10.0971 0.456158C10.7053 0.449968 11.1933 0.937972 11.1871 1.54616L11.1124 8.88759L18.4538 8.81285C19.062 8.80667 19.55 9.2947 19.5439 9.90288C19.5377 10.5111 19.0396 11.0091 18.4314 11.0153L11.09 11.09L11.0153 18.4315C11.0091 19.0396 10.511 19.5377 9.90287 19.5439C9.29467 19.5501 8.80665 19.062 8.81284 18.4539L8.88758 11.1124L1.54614 11.1872C0.937959 11.1934 0.449952 10.7054 0.45614 10.0972Z"
    fill="#ffffff"
/>
</svg>