<svg width="16" height="16" viewBox="0 0 19 19" fill="none" xmlns="http://www.w3.org/2000/svg">
<path d="M11.2407 9.50003L18.6389 16.8985C19.1204 17.3797 19.1204 18.1578 18.6389 18.6391C18.1577 19.1203 17.3796 19.1203 16.8984 18.6391L9.49991 11.2406L2.10167 18.6391C1.62021 19.1203 0.842338 19.1203 0.361098 18.6391C-0.120366 18.1578 -0.120366 17.3797 0.361098 16.8985L7.75933 9.50003L0.361098 2.10157C-0.120366 1.62033 -0.120366 0.842237 0.361098 0.360998C0.600929 0.120943 0.91627 0.000350952 1.23139 0.000350952C1.5465 0.000350952 1.86162 0.120943 2.10167 0.360998L9.49991 7.75946L16.8984 0.360998C17.1384 0.120943 17.4535 0.000350952 17.7687 0.000350952C18.0838 0.000350952 18.3989 0.120943 18.6389 0.360998C19.1204 0.842237 19.1204 1.62033 18.6389 2.10157L11.2407 9.50003Z" fill="#CE0313"/>
</svg>